# File produced by Open Asset Import Library (http://www.assimp.sf.net)
# (assimp v3.1.128981410)

mtllib Keystone_02.mtl

# vertex positions
v -372.794708 2779.616699 -2145.415771
v -377.649689 2810.458252 -2145.415771
v -377.649719 2810.458252 -2245.273926
v -368.921661 2755.012939 -2245.273926
v -368.921631 2755.012939 -2145.415771
v -327.073883 2810.458252 -2245.273926
v -335.801941 2755.012939 -2245.273926
v -327.073853 2810.458252 -2145.415771
v -330.837830 2786.547363 -2145.415771
v -335.801910 2755.012939 -2145.415771

# UV coordinates
vt 0.375000 0.610937
vt 0.375000 0.750000
vt 0.125000 0.750000
vt 0.125000 0.500000
vt 0.375000 0.500000
vt 0.375000 0.000000
vt 0.625000 -0.000000
vt 0.625000 0.250000
vt 0.375000 0.250000
vt 0.625000 0.750000
vt 0.625000 0.642187
vt 0.625000 0.500000
vt 0.875000 0.500000
vt 0.875000 0.750000
vt 0.625000 1.000000
vt 0.375000 1.000000

# vertex normals
vn -0.987835 -0.155502 0.000000
vn -0.000000 -0.000000 -1.000000
vn 0.987836 -0.155503 -0.000000
vn -0.000000 -1.000000 0.000000
vn 0.000000 -0.000000 1.000000
vn 0.000000 1.000000 -0.000000

# Mesh
g Floor 3 Window 1 (Normal)
usemtl Material.373
f 5/5/1 1/1/1 2/2/1
f 5/5/1 2/2/1 3/3/1
f 3/3/1 4/4/1 5/5/1
f 4/9/2 3/6/2 6/7/2
f 6/7/2 7/8/2 4/9/2
f 6/14/3 8/10/3 9/11/3
f 6/14/3 9/11/3 10/12/3
f 10/12/3 7/13/3 6/14/3
f 10/12/4 5/5/4 4/9/4
f 4/9/4 7/8/4 10/12/4
f 9/11/5 8/10/5 2/2/5
f 9/11/5 2/2/5 1/1/5
f 9/11/5 1/1/5 5/5/5
f 5/5/5 10/12/5 9/11/5
f 2/2/6 8/10/6 6/15/6
f 6/15/6 3/16/6 2/2/6
